<svg width="24" height="24" viewBox="0 0 24 24" fill="none" xmlns="http://www.w3.org/2000/svg">
<path d="M10 16H6C5.44772 16 5 16.4477 5 17V21C5 21.5523 5.44772 22 6 22H10C10.5523 22 11 21.5523 11 21V17C11 16.4477 10.5523 16 10 16Z" stroke="currentColor" stroke-width="2" stroke-linecap="round" stroke-linejoin="round"/>
<path d="M7 2H3C2.44772 2 2 2.44772 2 3V7C2 7.55228 2.44772 8 3 8H7C7.55228 8 8 7.55228 8 7V3C8 2.44772 7.55228 2 7 2Z" stroke="currentColor" stroke-width="2" stroke-linecap="round" stroke-linejoin="round"/>
<path d="M5 9V11.25C5 11.4489 5.10435 11.6397 5.2901 11.7803C5.47585 11.921 5.72779 12 5.99048 12H13" stroke="currentColor" stroke-width="2" stroke-linecap="round" stroke-linejoin="round"/>
<path d="M11 19H17.557C17.6745 19 17.7872 18.921 17.8702 18.7803C17.9533 18.6397 18 18.4489 18 18.25V16" stroke="currentColor" stroke-width="2" stroke-linecap="round" stroke-linejoin="round"/>
<path d="M21.4497 10.6213L19.0355 8.20711C18.3689 7.54044 17.288 7.54044 16.6213 8.20711L14.2071 10.6213C13.5404 11.288 13.5404 12.3689 14.2071 13.0355L16.6213 15.4497C17.288 16.1164 18.3689 16.1164 19.0355 15.4497L21.4497 13.0355C22.1164 12.3689 22.1164 11.288 21.4497 10.6213Z" stroke="currentColor" stroke-width="2" stroke-linecap="round" stroke-linejoin="round"/>
</svg>
