<svg width="20" height="20" viewBox="0 0 20 20" fill="none" xmlns="http://www.w3.org/2000/svg">
<path d="M17 1H3C1.89543 1 1 1.89543 1 3V17C1 18.1046 1.89543 19 3 19H17C18.1046 19 19 18.1046 19 17V3C19 1.89543 18.1046 1 17 1Z" stroke="black" stroke-width="2" stroke-linecap="round" stroke-linejoin="round"/>
<path d="M2 8L8 2H9L2 9V8Z" stroke="black"/>
<path d="M4 2L2 4V5L5 2H4Z" stroke="black"/>
<path d="M12 2L2 12V13L13 2H12Z" stroke="black"/>
<path d="M16 2L2 16V17L17 2H16Z" stroke="black"/>
<path d="M18 4L4 18H5L18 5V4Z" stroke="black"/>
<path d="M8 18L18 8V9L9 18H8Z" stroke="black"/>
<path d="M18 12L12 18H13L18 13V12Z" stroke="black"/>
<path d="M18 16L16 18H17L18 17V16Z" stroke="black"/>
</svg>
