<svg width="24" height="24" viewBox="0 0 24 24" fill="none" xmlns="http://www.w3.org/2000/svg">
<path d="M22 3.5C22 3.78 21.78 4 21.5 4H2.5C2.22 4 2 3.78 2 3.5V2.5C2 2.22 2.22 2 2.5 2H21.5C21.78 2 22 2.22 22 2.5V3.5Z" fill="currentColor"/>
<path d="M8 7.5C8 7.22 7.78 7 7.5 7H3C2.72 7 2.5 7.22 2.5 7.5V8.5C2.5 8.78 2.72 9 3 9H7.5C7.78 9 8 8.78 8 8.5V7.5Z" fill="currentColor"/>
<path d="M10 11.5C10 11.22 9.78 11 9.5 11H3C2.72 11 2.5 11.22 2.5 11.5V12.5C2.5 12.78 2.72 13 3 13H9.5C9.78 13 10 12.78 10 12.5V11.5Z" fill="currentColor"/>
<path d="M8.5 15.5C8.5 15.22 8.28 15 8 15H3C2.72 15 2.5 15.22 2.5 15.5V16.5C2.5 16.78 2.72 17 3 17H8C8.28 17 8.5 16.78 8.5 16.5V15.5Z" fill="currentColor"/>
<path d="M22 21.5C22 21.78 21.78 22 21.5 22H2.5C2.22 22 2 21.78 2 21.5V20.5C2 20.22 2.22 20 2.5 20H21.5C21.78 20 22 20.22 22 20.5V21.5Z" fill="currentColor"/>
<path d="M15.5 9V16.5C15.5 16.78 15.72 17 16 17H17C17.28 17 17.5 16.78 17.5 16.5V9H15.5Z" fill="currentColor"/>
<path d="M12.5 7C12.22 7 12 7.22 12 7.5V8.5C12 8.78 12.22 9 12.5 9H15.5H17.5H20.5C20.78 9 21 8.78 21 8.5V7.5C21 7.22 20.78 7 20.5 7H12.5Z" fill="currentColor"/>
</svg>
