<svg width="20" height="20" viewBox="0 0 20 20" fill="none" xmlns="http://www.w3.org/2000/svg">
<path d="M17 1H3C1.89543 1 1 1.89543 1 3V17C1 18.1046 1.89543 19 3 19H17C18.1046 19 19 18.1046 19 17V3C19 1.89543 18.1046 1 17 1Z" stroke="black" stroke-width="2" stroke-linecap="round" stroke-linejoin="round"/>
<path d="M5 2L2 4V5L6 2H5Z" stroke="black"/>
<path d="M2 9V8L6 2H7L2 9ZM2 9L10 2H11M2 9V10L11 2M11 2L2 13V14M11 2H12L2 14M2 14L15 2H16M2 14V15L16 2M16 2L2 18H3M16 2H17L3 18M3 18L18 5V6M3 18H4L18 6M18 6L7 18H8M18 6V7L8 18M8 18L18 10V11M8 18H9L18 11M18 11L12 18H13M18 11V12L13 18M13 18L18 15V16M13 18H14L18 16M18 16L17 18H18V16Z" stroke="black"/>
</svg>
