<?xml version="1.0" encoding="UTF-8" standalone="no"?>
<!DOCTYPE svg PUBLIC "-//W3C//DTD SVG 1.1//EN" "http://www.w3.org/Graphics/SVG/1.1/DTD/svg11.dtd">
<svg width="100%" height="100%" viewBox="0 0 1920 540" version="1.1" xmlns="http://www.w3.org/2000/svg" xmlns:xlink="http://www.w3.org/1999/xlink" xml:space="preserve" xmlns:serif="http://www.serif.com/" style="fill-rule:evenodd;clip-rule:evenodd;stroke-linecap:round;stroke-linejoin:round;stroke-miterlimit:1.5;">
    <g>
        <path d="M453.102,478.77l44.219,0l-0,-115.462l105.144,115.462l56.994,0l-112.023,-121.358l107.601,-112.022l-53.555,-0l-104.161,110.057l-0,-227.484l-44.219,-0l-0,350.807Z" style="fill-rule:nonzero;"/>
        <rect x="697.782" y="127.963" width="44.219" height="350.807" style="fill-rule:nonzero;"/>
        <path d="M906.105,483.683c33.41,0 60.924,-13.757 77.63,-36.358l-0,31.445l44.71,0l0,-233.38l-44.71,-0l-0,31.936c-16.706,-23.092 -44.711,-36.849 -77.63,-36.849c-64.364,-0 -113.988,53.554 -113.988,121.849c0,68.294 49.624,121.357 113.988,121.357Zm7.37,-41.762c-44.22,-0 -75.665,-33.411 -75.665,-80.087c0,-46.676 30.954,-79.595 75.173,-79.595c44.22,0 73.7,32.428 73.7,80.087c-0,47.167 -29.48,79.595 -73.208,79.595Z" style="fill-rule:nonzero;"/>
        <path d="M1191.57,483.683c32.919,0 61.416,-13.757 78.121,-36.849l-0,31.936l44.711,0l-0,-350.807l-44.711,-0l-0,149.854c-17.197,-23.092 -45.202,-37.34 -78.612,-37.34c-63.873,-0 -113.006,53.063 -113.006,121.849c0,68.294 49.133,121.357 113.497,121.357Zm7.37,-41.762c-44.22,-0 -75.173,-32.919 -75.173,-80.087c-0,-46.676 30.953,-79.595 74.681,-79.595c44.22,0 74.191,32.919 74.191,80.087c-0,46.676 -29.971,79.595 -73.699,79.595Z" style="fill-rule:nonzero;"/>
        <path d="M1477.52,483.683c32.919,0 61.416,-13.757 78.121,-36.849l0,31.936l44.711,0l-0,-350.807l-44.711,-0l0,149.854c-17.196,-23.092 -45.202,-37.34 -78.612,-37.34c-63.873,-0 -113.005,53.063 -113.005,121.849c-0,68.294 49.132,121.357 113.496,121.357Zm7.37,-41.762c-44.219,-0 -75.173,-32.919 -75.173,-80.087c-0,-46.676 30.954,-79.595 74.682,-79.595c44.219,0 74.19,32.919 74.19,80.087c0,46.676 -29.971,79.595 -73.699,79.595Z" style="fill-rule:nonzero;"/>
        <path d="M1772.81,483.683c36.849,0 70.259,-14.248 92.86,-40.288l-28.497,-28.989c-15.231,18.671 -38.323,27.515 -64.363,27.515c-41.763,-0 -71.243,-24.567 -78.121,-63.382l182.773,0c1.965,-9.335 2.457,-16.705 2.457,-23.583c-0,-66.329 -46.185,-114.479 -110.057,-114.479c-67.804,-0 -120.375,53.063 -120.375,121.357c-0,69.769 53.063,121.849 123.323,121.849Zm-3.931,-202.426c38.323,-0 62.89,22.601 67.803,60.433l-141.993,-0c6.878,-36.85 34.884,-60.433 74.19,-60.433Z" style="fill-rule:nonzero;"/>
        <path d="M141.159,71.215l0,382.465c0,8.222 -6.675,14.898 -14.898,14.898l-71.278,-0c-8.222,-0 -14.898,-6.676 -14.898,-14.898l0,-382.465c0,-8.223 6.676,-14.898 14.898,-14.898l71.278,-0c8.223,-0 14.898,6.675 14.898,14.898Z" style="fill:none;stroke:black;stroke-width:18.47px;"/>
        <path d="M141.159,290.843c0.434,-0.556 0.907,-1.092 1.417,-1.603l84.296,-84.295l-20.857,-20.857c-2.643,-2.643 -1.681,-7.942 2.216,-11.839c1.757,-1.757 3.96,-3.049 6.163,-3.519c27.398,-5.778 76.314,-16.112 98.708,-20.838c3.081,-0.657 5.815,-0.016 7.567,1.735c1.758,1.758 2.392,4.486 1.735,7.567c-4.726,22.394 -15.053,71.317 -20.844,98.702c-0.464,2.209 -1.756,4.412 -3.513,6.169c-3.897,3.897 -9.19,4.866 -11.839,2.216l-20.857,-20.857l-40.137,40.138l0.154,0.154l-74.243,74.243l-9.966,-9.966l0,-27.646l6.898,-6.898l-6.898,-6.898l0,-15.708Z"/>
        <path d="M141.159,365.337l14.758,-14.758l83.824,73.751l37.536,-42.831l-81.147,-71.133l18.246,-18.246l99.867,87.553c30.435,73.203 34.206,81.201 34.78,89.941c0.468,7.115 -5.76,13.518 -13.644,14.036c-1.266,0.083 -2.559,0.014 -3.864,-0.244c-2.635,-0.543 -22.108,-5.386 -43.974,-10.862c-15.417,-3.861 -32.022,-8.037 -44.754,-11.242l-101.628,-89.415l0,-6.55Zm119.597,74.018l55.598,14.059l-21.448,-53.009l-34.15,38.95Z"/>
    </g>
</svg>
