<?xml version="1.0" encoding="UTF-8" standalone="no"?>
<!DOCTYPE svg PUBLIC "-//W3C//DTD SVG 1.1//EN" "http://www.w3.org/Graphics/SVG/1.1/DTD/svg11.dtd">
<svg width="100%" height="100%" viewBox="0 0 1920 540" version="1.1" xmlns="http://www.w3.org/2000/svg" xmlns:xlink="http://www.w3.org/1999/xlink" xml:space="preserve" xmlns:serif="http://www.serif.com/" style="fill-rule:evenodd;clip-rule:evenodd;stroke-linecap:round;stroke-linejoin:round;stroke-miterlimit:1.5;">
    <g id="kladde-logo-refined" transform="matrix(1.07769,0,0,1.07769,-92.0479,-276.129)">
        <g transform="matrix(1.58301,0,0,1.58301,-513.401,-56.3026)">
            <g transform="matrix(288,0,0,288,624.86,478.065)">
                <path d="M0.37,-0L0.148,-0.243L0.368,-0.475L0.477,-0.475L0.232,-0.219L0.236,-0.271L0.486,-0L0.37,-0ZM0.066,-0L0.066,-0.714L0.156,-0.714L0.156,-0L0.066,-0Z" style="fill:white;fill-rule:nonzero;"/>
            </g>
            <g transform="matrix(288,0,0,288,768.284,478.065)">
                <rect x="0.066" y="-0.714" width="0.09" height="0.714" style="fill:white;fill-rule:nonzero;"/>
            </g>
            <g transform="matrix(288,0,0,288,832.22,478.065)">
                <path d="M0.268,0.01C0.225,0.01 0.185,-0.001 0.15,-0.023C0.115,-0.044 0.087,-0.074 0.067,-0.111C0.046,-0.148 0.036,-0.19 0.036,-0.237C0.036,-0.284 0.046,-0.326 0.067,-0.363C0.087,-0.4 0.115,-0.43 0.15,-0.452C0.185,-0.474 0.224,-0.485 0.268,-0.485C0.304,-0.485 0.336,-0.478 0.365,-0.463C0.393,-0.448 0.416,-0.427 0.433,-0.401C0.45,-0.374 0.46,-0.344 0.462,-0.309L0.462,-0.166C0.46,-0.132 0.451,-0.102 0.434,-0.075C0.417,-0.048 0.394,-0.028 0.366,-0.013C0.337,0.003 0.305,0.01 0.268,0.01ZM0.283,-0.075C0.328,-0.075 0.364,-0.09 0.391,-0.121C0.418,-0.151 0.432,-0.19 0.432,-0.237C0.432,-0.27 0.426,-0.298 0.414,-0.323C0.401,-0.347 0.384,-0.366 0.361,-0.38C0.338,-0.393 0.312,-0.4 0.282,-0.4C0.252,-0.4 0.226,-0.393 0.203,-0.379C0.18,-0.365 0.162,-0.346 0.149,-0.322C0.135,-0.297 0.129,-0.269 0.129,-0.238C0.129,-0.206 0.135,-0.178 0.149,-0.154C0.162,-0.129 0.18,-0.11 0.203,-0.096C0.226,-0.082 0.253,-0.075 0.283,-0.075ZM0.426,-0L0.426,-0.128L0.443,-0.244L0.426,-0.359L0.426,-0.475L0.517,-0.475L0.517,-0L0.426,-0Z" style="fill:white;fill-rule:nonzero;"/>
            </g>
            <g transform="matrix(288,0,0,288,999.836,478.065)">
                <path d="M0.267,0.01C0.223,0.01 0.184,-0.001 0.149,-0.023C0.114,-0.044 0.087,-0.074 0.067,-0.111C0.046,-0.148 0.036,-0.19 0.036,-0.237C0.036,-0.284 0.046,-0.326 0.067,-0.363C0.087,-0.4 0.114,-0.43 0.149,-0.452C0.184,-0.474 0.223,-0.485 0.267,-0.485C0.302,-0.485 0.334,-0.478 0.363,-0.463C0.392,-0.448 0.415,-0.427 0.433,-0.401C0.45,-0.374 0.46,-0.344 0.462,-0.309L0.462,-0.166C0.46,-0.132 0.45,-0.102 0.433,-0.075C0.416,-0.048 0.393,-0.028 0.364,-0.013C0.335,0.003 0.303,0.01 0.267,0.01ZM0.282,-0.075C0.312,-0.075 0.338,-0.082 0.361,-0.096C0.383,-0.11 0.4,-0.129 0.413,-0.154C0.426,-0.178 0.432,-0.206 0.432,-0.237C0.432,-0.27 0.426,-0.298 0.413,-0.322C0.4,-0.346 0.382,-0.365 0.36,-0.379C0.337,-0.393 0.311,-0.4 0.281,-0.4C0.251,-0.4 0.225,-0.393 0.202,-0.379C0.179,-0.365 0.162,-0.346 0.149,-0.322C0.135,-0.297 0.129,-0.269 0.129,-0.238C0.129,-0.206 0.135,-0.178 0.149,-0.154C0.162,-0.129 0.18,-0.11 0.203,-0.096C0.226,-0.082 0.252,-0.075 0.282,-0.075ZM0.517,-0L0.426,-0L0.426,-0.128L0.443,-0.244L0.426,-0.359L0.426,-0.714L0.517,-0.714L0.517,-0Z" style="fill:white;fill-rule:nonzero;"/>
            </g>
            <g transform="matrix(288,0,0,288,1167.45,478.065)">
                <path d="M0.267,0.01C0.223,0.01 0.184,-0.001 0.149,-0.023C0.114,-0.044 0.087,-0.074 0.067,-0.111C0.046,-0.148 0.036,-0.19 0.036,-0.237C0.036,-0.284 0.046,-0.326 0.067,-0.363C0.087,-0.4 0.114,-0.43 0.149,-0.452C0.184,-0.474 0.223,-0.485 0.267,-0.485C0.302,-0.485 0.334,-0.478 0.363,-0.463C0.392,-0.448 0.415,-0.427 0.433,-0.401C0.45,-0.374 0.46,-0.344 0.462,-0.309L0.462,-0.166C0.46,-0.132 0.45,-0.102 0.433,-0.075C0.416,-0.048 0.393,-0.028 0.364,-0.013C0.335,0.003 0.303,0.01 0.267,0.01ZM0.282,-0.075C0.312,-0.075 0.338,-0.082 0.361,-0.096C0.383,-0.11 0.4,-0.129 0.413,-0.154C0.426,-0.178 0.432,-0.206 0.432,-0.237C0.432,-0.27 0.426,-0.298 0.413,-0.322C0.4,-0.346 0.382,-0.365 0.36,-0.379C0.337,-0.393 0.311,-0.4 0.281,-0.4C0.251,-0.4 0.225,-0.393 0.202,-0.379C0.179,-0.365 0.162,-0.346 0.149,-0.322C0.135,-0.297 0.129,-0.269 0.129,-0.238C0.129,-0.206 0.135,-0.178 0.149,-0.154C0.162,-0.129 0.18,-0.11 0.203,-0.096C0.226,-0.082 0.252,-0.075 0.282,-0.075ZM0.517,-0L0.426,-0L0.426,-0.128L0.443,-0.244L0.426,-0.359L0.426,-0.714L0.517,-0.714L0.517,-0Z" style="fill:white;fill-rule:nonzero;"/>
            </g>
            <g transform="matrix(288,0,0,288,1335.07,478.065)">
                <path d="M0.286,0.01C0.239,0.01 0.196,-0.001 0.158,-0.023C0.12,-0.044 0.09,-0.074 0.068,-0.111C0.046,-0.148 0.035,-0.191 0.035,-0.238C0.035,-0.285 0.046,-0.327 0.068,-0.364C0.089,-0.401 0.119,-0.431 0.156,-0.453C0.193,-0.474 0.234,-0.485 0.28,-0.485C0.324,-0.485 0.363,-0.475 0.397,-0.455C0.43,-0.435 0.456,-0.407 0.476,-0.372C0.495,-0.337 0.504,-0.297 0.504,-0.252C0.504,-0.245 0.504,-0.238 0.503,-0.231C0.502,-0.223 0.501,-0.214 0.499,-0.204L0.098,-0.204L0.098,-0.279L0.451,-0.279L0.418,-0.25C0.418,-0.282 0.412,-0.309 0.401,-0.332C0.39,-0.354 0.374,-0.371 0.353,-0.384C0.332,-0.396 0.307,-0.402 0.278,-0.402C0.247,-0.402 0.22,-0.395 0.197,-0.382C0.174,-0.369 0.156,-0.35 0.143,-0.326C0.13,-0.302 0.124,-0.274 0.124,-0.241C0.124,-0.208 0.131,-0.179 0.144,-0.154C0.157,-0.129 0.176,-0.109 0.201,-0.096C0.226,-0.082 0.254,-0.075 0.286,-0.075C0.313,-0.075 0.337,-0.08 0.36,-0.089C0.382,-0.098 0.401,-0.112 0.417,-0.131L0.475,-0.072C0.452,-0.045 0.425,-0.025 0.392,-0.011C0.359,0.003 0.323,0.01 0.286,0.01Z" style="fill:white;fill-rule:nonzero;"/>
            </g>
        </g>
        <g transform="matrix(1.18509,0,0,1.93801,-542.668,42.4526)">
            <path d="M640.51,144.401L640.51,327.523C640.51,331.46 635.283,334.657 628.845,334.657L573.036,334.657C566.598,334.657 561.371,331.46 561.371,327.523L561.371,144.401C561.371,140.464 566.598,137.268 573.036,137.268L628.845,137.268C635.283,137.268 640.51,140.464 640.51,144.401Z" style="fill:none;stroke:white;stroke-width:14.92px;"/>
        </g>
        <path d="M216.395,526.1C216.798,525.584 217.236,525.086 217.71,524.613L295.929,446.394L276.576,427.041C274.123,424.588 275.016,419.671 278.632,416.055C280.263,414.425 282.307,413.226 284.35,412.79C309.773,407.428 355.163,397.839 375.943,393.454C378.802,392.845 381.339,393.439 382.964,395.064C384.595,396.695 385.184,399.226 384.575,402.086C380.189,422.865 370.606,468.261 365.233,493.672C364.803,495.722 363.604,497.766 361.973,499.396C358.357,503.012 353.446,503.911 350.988,501.453L331.635,482.1L294.39,519.344L294.533,519.487L225.643,588.377L216.395,579.13L216.395,553.477L222.796,547.076L216.395,540.676L216.395,526.1Z" style="fill:white;"/>
        <path d="M216.395,595.224L230.09,581.53L307.87,649.964L342.701,610.221L267.404,544.216L284.334,527.285L377.002,608.526C405.243,676.452 408.742,683.873 409.275,691.983C409.708,698.585 403.93,704.527 396.614,705.008C395.439,705.085 394.24,705.02 393.029,704.781C390.584,704.278 372.514,699.784 352.224,694.702C337.92,691.119 322.511,687.245 310.697,684.27L216.395,601.302L216.395,595.224ZM327.37,663.905L378.96,676.951L359.059,627.763L327.37,663.905Z" style="fill:white;"/>
    </g>
</svg>
